# xmcd CD database file
#
# Track frame offsets:
#	182
#	11102
#	25830
#	38485
#	54580
#	67080
#	79952
#	90375
#	102555
#	116067
#	130575
#	142980
#	160637
#	175850
#	190517
#	201415
#	211992
#	227930
#	243150
#	258990
#	272102
#	290335
#	305910
#
# Disc length: 4409 seconds
#
# Revision: 0
# Processed by: cddbd v1.5.2PL0 Copyright (c) Steve Scherf et al.
# Submitted via: CDex 1.50Beta7
#
DISCID=46113717
DTITLE=Aretha Franklin - Le Meilleur
DYEAR=1999
DGENRE=Jazz
TTITLE0=Respect
TTITLE1=Think - The Blues Brothers
TTITLE2=Chain Of Fools
TTITLE3=I Say A Little Prayer
TTITLE4=(You Make Me Feel) Like A Natural Woman
TTITLE5=I Never Loved A Man (The Way I Love You)
TTITLE6=Save Me
TTITLE7=Baby I Love You
TTITLE8=Don't Play That Song (You Lied)
TTITLE9=Rock Steady
TTITLE10=See Saw
TTITLE11=Call Me
TTITLE12=Dr Feelgood (Love Is A Serious Business)
TTITLE13=Do Right Woman, Do Right Man
TTITLE14=Since You've Been Gone (Sweet Sweet Baby)
TTITLE15=The House That Jack Built
TTITLE16=Let It Be
TTITLE17=Border Song (Holy Moses
TTITLE18=Spanish Harlem
TTITLE19=The Weight
TTITLE20=Spirit In The Dark
TTITLE21=Until You Come Back To Me (That's What I'm Gonna Do)
TTITLE22=Bridge Over Troubled Water
EXTD=YEAR: 1999
EXTT0=
EXTT1=
EXTT2=
EXTT3=
EXTT4=
EXTT5=
EXTT6=
EXTT7=
EXTT8=
EXTT9=
EXTT10=
EXTT11=
EXTT12=
EXTT13=
EXTT14=
EXTT15=
EXTT16=
EXTT17=
EXTT18=
EXTT19=
EXTT20=
EXTT21=
EXTT22=
PLAYORDER=
